<?xml version="1.0" encoding="utf-8"?>
<svg xmlns="http://www.w3.org/2000/svg" viewBox="0 0 48 48" width="480" height="480">
  <path fill="#e64a19" d="M17.125 4L10.125 4 20.125 22 27.125 22z" />
  <path fill="#ff754c" d="M31.125 4L21.125 22 28.125 22 38.125 4z" />
  <path fill="#c93d18" d="M27.125 22L27.057 21.869 26.99 22zM22.953 14.438L19.509 20.861 20.626 23.042 24.109 16.609z" />
  <path fill="#ffba57" d="M24.125 21A12 12 0 1 0 24.125 45A12 12 0 1 0 24.125 21Z" />
  <path fill="#ffe082" d="M24.125,23c-5.521,0-10,4.478-10,10c0,5.521,4.479,10,10,10s10-4.479,10-10C34.125,27.478,29.646,23,24.125,23z M27.125,30h-2v6h2v2h-6v-2h2v-6h-2v-2h6V30z" />
</svg>