<?xml version="1.0" encoding="utf-8"?>
<svg xmlns="http://www.w3.org/2000/svg" viewBox="0 0 48 48" width="480" height="480">
  <path fill="#e64a19" d="M17 4L10 4 20 22 27 22z" />
  <path fill="#ff754c" d="M31 4L21 22 28 22 38 4z" />
  <path fill="#c93d18" d="M27 22L26.932 21.869 26.865 22zM22.828 14.438L19.384 20.861 20.501 23.042 23.984 16.609z" />
  <path fill="#9fa8da" d="M24 21A12 12 0 1 0 24 45A12 12 0 1 0 24 21Z" />
  <g>
    <path fill="#c5cae9" d="M23 30H25V36H23z" />
    <path fill="#c5cae9" d="M24,23c-5.521,0-10,4.478-10,10c0,5.521,4.479,10,10,10s10-4.479,10-10C34,27.478,29.521,23,24,23z M29,30h-2v6h2v2H19v-2h2v-6h-2v-2h10V30z" />
  </g>
</svg>